<?xml version="1.0" encoding="UTF-8"?>
<svg width="248px" height="248px" viewBox="0 0 248 248" version="1.1" xmlns="http://www.w3.org/2000/svg" xmlns:xlink="http://www.w3.org/1999/xlink">
    <title>lollipop</title>
    <g id="Page-1" stroke="none" stroke-width="1" fill="none" fill-rule="evenodd">
        <g id="lollipop" transform="translate(0.1, 0.0002)" fill-rule="nonzero">
            <path d="M185.85,16.4787671 C165.253,4.58776712 142.671,-0.576232882 120.522,0.0507671177 C120.056,0.0757671177 119.59,0.105767118 119.124,0.139767118 C86.99,2.49276712 56.216,25.9927671 56.216,61.8307671 C56.216,96.0447671 94.334,139.174767 123.899,123.780767 L228.642,57.9097671 C218.287,41.3777671 203.924,26.9137671 185.85,16.4787671 L185.85,16.4787671 Z" id="Path" fill="#FFE077"></path>
            <path d="M123.9,123.779767 L39.107,208.280767 L47.311,216.568767 C51.878,220.169767 56.76,223.488767 61.949,226.484767 C82.546,238.375767 105.12,242.122767 127.277,242.122767 C165.139,242.122767 187.292,209.543767 187.292,209.543767 C189.816,202.801767 190.55,193.356767 190.55,185.728767 C190.55,151.516767 157.212,108.875767 123.9,123.779767 L123.9,123.779767 Z" id="Path" fill="#CBB0F2"></path>
            <path d="M239.311,127.771767 C234.16,116.480767 222.869,99.9217671 211.293,93.2377671 C181.663,76.1307671 132.452,88.3507671 123.9,123.780767 C158.114,123.780767 185.85,151.516767 185.85,185.730767 C185.85,193.357767 184.469,200.658767 181.947,207.402767 L186.208,219.970767 C186.208,219.970767 218.247,201.021767 228.778,181.527767 C237.59,164.161767 239.311,127.771767 239.311,127.771767 Z" id="Path" fill="#1BADDE"></path>
            <path d="M61.95,16.4797671 C41.353,28.3717671 25.59,45.3467671 15.058,64.8407671 C14.849,65.2517671 14.606,65.6697671 14.402,66.0867671 C0.017,95.5177671 4.195,141.440767 32.434,157.744767 C62.064,174.851767 125.936,156.115767 123.9,123.780767 C89.686,123.780767 61.95,96.0447671 61.95,61.8307671 C61.95,29.2307671 87.152,2.58876712 119.125,0.139767118 C99.63,0.840767118 80.024,6.04476712 61.95,16.4797671 Z" id="Path" fill="#FFAA5A"></path>
            <path d="M229.364,58.9897671 C211.52,31.6097671 175.218,22.6177671 146.575,39.1547671 C116.945,56.2617671 106.793,94.1497671 123.9,123.779767 C141.007,94.1497671 178.895,83.9977671 208.525,101.104767 C220.098,107.786767 228.663,117.725767 233.821,129.015767 L241.375,124.839767 C244.524,86.2867671 229.364,58.9897671 229.364,58.9897671 L229.364,58.9897671 Z" id="Path" fill="#98DB7C"></path>
            <path d="M0,123.779767 C0,147.562767 6.819,169.701767 18.436,188.569767 C19.938,190.873767 21.737,193.661767 23.059,195.205767 C25.609,198.181767 29.768,203.493767 33.302,206.123767 C36.426,208.448767 39.107,208.280767 39.107,208.280767 C57.587,218.561767 81.618,219.724767 101.224,208.404767 C130.854,191.297767 141.006,153.409767 123.899,123.779767 C106.792,153.409767 68.904,163.561767 39.274,146.454767 C11.041,130.154767 0.535,94.9987671 14.401,66.0857671 C5.262,83.3197671 0,102.910767 0,123.779767 Z" id="Path" fill="#FF5F7A"></path>
            <path d="M109.959,229.963767 C83.6,229.963767 59.364,222.079767 39.107,208.281767 C34.135,205.358767 29.322,201.519767 25.261,197.207767 C24.525,196.541767 23.779,195.888767 23.059,195.206767 C33.035,209.398767 45.932,221.833767 61.95,231.081767 C82.547,242.972767 105.129,248.136767 127.278,247.510767 C127.74,247.485767 128.203,247.455767 128.667,247.420767 C153.344,245.563767 179.52,229.759767 181.947,207.403767 C161.526,221.556767 136.688,229.963767 109.959,229.963767 Z" id="Path" fill="#B896E8"></path>
            <path d="M233.842,128.930767 C227.206,161.322767 208.12,189.254767 181.877,207.451767 C173.602,229.497767 153.133,245.545767 128.667,247.418767 C148.161,246.717767 167.777,241.513767 185.851,231.079767 C206.448,219.187767 222.81,202.525767 232.742,182.718767 C232.953,182.297767 233.162,181.871767 233.367,181.440767 C242.423,162.458767 246.198,133.849767 233.842,128.930767 L233.842,128.930767 Z" id="Path" fill="#008CDF"></path>
            <path d="M247.8,123.779767 C247.8,99.9967671 240.981,77.8577671 229.364,58.9897671 L229.364,58.9897671 C234.404,72.6227671 236.391,88.1487671 236.391,103.532767 C236.391,112.261767 235.507,120.785767 233.821,129.016767 C241.218,145.254767 241.539,164.403767 233.367,181.441767 C242.509,164.207767 247.8,144.649767 247.8,123.779767 Z" id="Path" fill="#77CC7D"></path>
        </g>
    </g>
</svg>